<?xml version="1.0"?>
<svg xmlns="http://www.w3.org/2000/svg" width="2000" height="328.9" xml:space="preserve">
  <path d="M611.9 324.3c-6.9 0-12.5-5.6-12.5-12.5V16.3c0-6.4 5.2-11.6 11.6-11.6 6.9 0 12.5 5.6 12.5 12.5v295.5c0 6.4-5.2 11.6-11.6 11.6zM512.6 4.6v146.2h-225V4.6H264v319.7h23.6V169.8h225v154.5h23.7V4.6zm-289.9 0H6c-3.6 0-6 2.9-6 6.5v6.5c0 3.6 2.4 6.5 6 6.5h96.5v294.1c0 3.6 2.9 6 6.5 6h10.2c3.6 0 6.5-2.4 6.5-6V24.1h97c3.6 0 6-2.9 6-6.5v-6.5c0-3.6-2.4-6.5-6-6.5zm641.2 36.3 5.8-7.8c2.2-3 1.5-7.3-1.7-9.3C853.6 14.6 821.2 0 780.3 0c-47.8 0-107.6 22.7-107.6 82.6s63.1 77 102.1 89.5c39 12.5 92.3 32 92.3 74.7s-52 63.1-83 63.1c-29.5 0-64.1-10.9-95-35.9-2.7-2.2-6.7-1.9-9 .7l-6.5 7.3c-2.4 2.7-1.6 6.3 1.1 8.6 22.5 19.4 62.3 38.2 108.8 38.2 50.1 0 107.6-31.1 107.6-82.6S847 172 778.8 151.1c-61.1-18.7-83.5-40.4-83.5-69.1s25.5-62.6 84.4-62.6c35.9 0 63.2 15.1 74.2 22.3 3.1 1.9 7.9 1.9 10-.8zm182.2 283.4c-6.9 0-12.5-5.6-12.5-12.5V16.3c0-6.4 5.2-11.6 11.6-11.6 6.9 0 12.5 5.6 12.5 12.5v295.5c.1 6.4-5.1 11.6-11.6 11.6zm252.5-283.4 5.8-7.8c2.2-3 1.5-7.3-1.7-9.3C1288.3 14.6 1255.9 0 1215 0c-47.8 0-107.6 22.7-107.6 82.6s63.1 77 102.1 89.5c39 12.5 92.3 32 92.3 74.7s-52 63.1-83 63.1c-29.5 0-64.1-10.9-95-35.9-2.7-2.2-6.7-1.9-9 .7l-6.5 7.3c-2.4 2.7-1.6 6.3 1.1 8.6 22.5 19.4 62.3 38.2 108.8 38.2 50.1 0 107.6-31.1 107.6-82.6s-44.1-74.2-112.3-95.1c-61.1-18.7-83.5-40.4-83.5-69.1s25.5-62.6 84.4-62.6c35.9 0 63.2 15.1 74.2 22.3 3.1 1.9 7.9 1.9 10-.8zm358.1-27.4v181.7c0 33.7-27.3 61-61 61h-3.3c-33.7 0-61-27.3-61-61V13.5c0-4.9-3.9-8.8-8.8-8.8H1460c-4.9 0-8.8 3.9-8.8 8.8v185.2c0 75.5 66.4 130.2 142 130.2h2.8c75.5 0 141-54.7 141-130.2V13.5c0-4.9-3.9-8.8-8.8-8.8h-62.6c-5-.1-8.9 3.9-8.9 8.8zm289.8 76.4c5.4 3.4 12.4 2 16.2-3.1l26.8-36.6c4-5.7 2.4-13.6-3.5-17.2C1960.3 17 1925.5.1 1879.4.1c-52.9 0-115.1 28.8-115.1 89.1s63.1 90 84 97.4c20.9 7.4 65 22.7 65 51 0 19.5-19.5 27.8-34.8 27.8-13.6 0-42.9-7.3-71.4-25.2-6.1-3.8-14.1-2-18 4.1l-24.3 38.4c-1.7 2.6-1.2 6.1 1.1 8.2 29.9 27 71.1 38 120.4 38 52.9 0 113.7-37.1 113.7-91.4 0-58-44.5-86.8-84.4-101.1-35.8-12.9-71-26.4-71-49.6 0-22.3 33.1-40.2 101.9 3.1z" fill="#eeae03"/>
</svg>
